<svg width="181" height="180" viewBox="0 0 181 180" fill="none" xmlns="http://www.w3.org/2000/svg">
<g clip-path="url(#clip0_117_341790)">
<path d="M0.263489 64C0.263489 41.5979 0.263489 30.3968 4.62323 21.8404C8.45816 14.3139 14.5774 8.19467 22.1039 4.35974C30.6603 0 41.8614 0 64.2635 0H116.263C138.666 0 149.867 0 158.423 4.35974C165.95 8.19467 172.069 14.3139 175.904 21.8404C180.263 30.3968 180.263 41.5979 180.263 64V116C180.263 138.402 180.263 149.603 175.904 158.16C172.069 165.686 165.95 171.805 158.423 175.64C149.867 180 138.666 180 116.263 180H64.2635C41.8614 180 30.6603 180 22.1039 175.64C14.5774 171.805 8.45816 165.686 4.62323 158.16C0.263489 149.603 0.263489 138.402 0.263489 116V64Z" fill="#FFB500"/>
<path d="M153.878 50.9502C151.388 67.1282 141.431 95.3358 106.164 112.758C70.8973 130.18 56.9944 131.855 30.6518 152.166C17.9071 161.992 5.80658 174.885 0.263498 180L0.263489 159.17L0.263493 128.731V51.2687V0H51.5322H128.995H146.601C155.478 20.6543 155.515 40.3075 153.878 50.9502Z" fill="#FFDD2D"/>
<path d="M52.2719 0H49.7744C31.9472 0 18.8963 0 18.8963 0H0.263489C0.263489 0 0.263489 28.1681 0.263489 45.9953V62.2266C27.5096 49.043 49.7744 23.3789 52.2719 0Z" fill="#FFEE70"/>
<path d="M102.92 179.99H129.101C146.929 179.99 180.275 179.99 180.275 179.99V161.191C180.275 161.191 180.263 148.271 180.275 135.176C150.721 138.053 121.514 155.602 102.92 179.99Z" fill="#FFDD2D"/>
<path fill-rule="evenodd" clip-rule="evenodd" d="M166.201 79.364L159.683 79.57C159.13 79.57 155.127 79.4558 151.24 76.651C151.531 76.6775 151.82 76.7203 152.118 76.7203C156.115 76.7203 159.988 74.3255 161.538 70.8944L164.342 64.7013C160.823 64.7482 157.609 64.3055 157.609 64.3055C157.582 64.3035 155.047 63.9771 152.116 60.9968C150.015 58.8611 147.412 57.7289 144.595 57.7289C143.361 57.7289 142.261 57.9513 141.31 58.2511C141.459 57.7493 141.597 57.2393 141.679 56.7151C142.576 50.9177 138.832 46.4993 138.83 46.5034L133.923 40.4572L130.883 47.5601C130.873 47.5805 130.102 49.2471 128.731 50.0569C128.319 47.9701 127.298 45.6222 125.121 43.3824C121.018 39.1557 116.025 38.5233 113.412 38.5233C112.202 38.5233 111.337 38.6539 111.126 38.6886L105.207 39.8452C105.549 38.5315 106.279 36.2366 107.607 34.1723L110.874 29.1092L102.653 30.0394L100.035 24.5052L94.9644 27.1061L90.2768 22.5L85.6015 27.1061L80.5203 24.5052L77.907 30.0394L69.6878 29.1072L72.9611 34.1743C74.2914 36.2366 75.017 38.5254 75.3552 39.8391L69.7062 38.7314L69.5115 38.6988C69.2307 38.6539 68.3719 38.5233 67.1544 38.5233C64.5431 38.5233 59.548 39.1557 55.4548 43.3803C53.276 45.6201 52.2532 47.9701 51.8371 50.0569C50.4741 49.2532 49.7096 47.6151 49.7096 47.6151L46.6638 40.4714L41.683 46.5544C41.0722 47.3377 38.0736 51.493 38.8873 56.7212C38.9713 57.2434 39.1086 57.7493 39.2562 58.2511C38.3113 57.9472 37.2086 57.7289 35.9767 57.7289C33.1584 57.7289 30.5574 58.8611 28.4503 60.9968C25.5275 63.9649 23.5387 64.1735 23.031 64.2994C22.5233 64.4253 20.3643 64.7767 16.2383 64.7013L19.03 70.8944C20.5796 74.3255 24.4555 76.7203 28.4462 76.7203C28.7475 76.7203 29.0345 76.6775 29.3296 76.651C25.4516 79.4558 21.4486 79.57 20.9649 79.5721L14.326 79.364L16.3367 85.6428C17.3493 88.8781 20.7333 94.2369 27.2082 94.8141C26.5031 97.7516 24.9413 101.046 21.5101 102.466L16.5642 104.493L19.2616 109.169C20.7825 111.69 24.3612 114.64 29.4506 114.64C30.5492 114.636 31.6109 114.526 32.6358 114.309C32.8981 115.462 33.224 116.617 33.6114 117.763C35.1261 122.253 33.8205 125.382 33.8061 125.417L31.3629 130.508L36.8151 131.938C36.8827 131.959 38.5306 132.409 40.5926 132.409C41.5273 132.409 42.425 132.313 43.2592 132.114C43.8926 131.967 44.5034 131.771 45.0876 131.534C45.7947 132.793 46.6515 133.943 47.6497 134.973C51.1444 138.541 56.0964 140.349 62.3663 140.349H62.3868L66.8633 140.291L57.6152 144.12L64.6374 147.498C67.1913 148.735 70.2125 150.197 73.2952 151.317L72.4159 153.706L74.8386 154.803C75.0539 154.901 79.7087 156.972 87.4442 157.414C87.4442 157.414 89.3135 157.5 90.3424 157.5C91.3693 157.5 93.214 157.408 93.214 157.408C100.902 156.955 105.52 154.901 105.735 154.803L108.162 153.702L107.277 151.311C110.444 150.158 113.582 148.637 116.029 147.447L122.918 144.116L113.701 140.291L118.195 140.349C124.476 140.349 129.428 138.539 132.916 134.967C133.91 133.945 134.765 132.799 135.476 131.534C136.063 131.771 136.677 131.967 137.313 132.118C138.147 132.313 139.041 132.409 139.975 132.409C142.002 132.409 143.667 131.965 143.712 131.95L149.187 130.508L146.801 125.51C146.745 125.382 145.44 122.253 146.957 117.759C147.34 116.612 147.664 115.458 147.928 114.309C148.957 114.526 150.031 114.636 151.14 114.64C157.623 114.64 160.73 110.103 161.331 109.116L164.004 104.489L159.058 102.47C155.618 101.046 154.061 97.7536 153.364 94.8182C159.755 94.2634 163.184 88.9005 164.231 85.6448L166.201 79.364Z" fill="#FEFEFE"/>
<path fill-rule="evenodd" clip-rule="evenodd" d="M101.079 37.7954C98.097 36.1431 94.2292 35.2027 90.2775 35.2027C86.3462 35.2027 82.4784 36.1431 79.488 37.7954C79.2153 36.8876 78.8362 35.7841 78.3196 34.6295L79.4429 34.7621L80.6235 34.8865L81.1318 33.8135L82.6199 30.6496L85.3787 32.0714L86.4487 32.612L87.2993 31.7757L90.2775 28.8362L93.2618 31.7757L94.1165 32.612L95.1864 32.0714L97.9309 30.6496L99.4395 33.8135L99.9376 34.8865L101.12 34.7621L102.248 34.6295C101.731 35.7841 101.348 36.8876 101.079 37.7954ZM90.2773 41.7267C85.0383 41.7328 81.1111 43.4402 80.2564 45.4495L90.2773 49.3885L100.3 45.4495C99.4537 43.4402 95.5245 41.7328 90.2773 41.7267ZM90.3836 145.913H90.3733H90.2872H90.1889H90.1807C87.0098 145.933 82.6338 145.284 80.5308 144.674L77.9974 151.496C79.6658 152.087 85.327 153.224 90.2872 153.224C95.2372 153.224 100.9 152.087 102.567 151.496L100.038 144.674C97.9264 145.284 93.5565 145.933 90.3836 145.913ZM101.012 142.522C103.459 141.781 107.671 140.186 109.556 139.124L108.298 143.223L112.565 144.635C109.985 145.924 106.857 147.127 103.068 148.157L101.012 142.522ZM71.0074 139.124L72.2699 143.223L67.9988 144.635C70.5771 145.924 73.7168 147.127 77.4919 148.157L79.5516 142.522C77.1087 141.781 72.8929 140.186 71.0074 139.124ZM150.567 71.7992C151.081 71.9766 151.602 72.0542 152.118 72.0542C154.355 72.0542 156.511 70.616 157.255 68.9719C157.255 68.9719 153.16 68.7251 148.753 64.2761C147.353 62.8339 145.867 62.4034 144.594 62.4034C142.616 62.4034 141.132 63.4397 141.132 63.4397C144.005 64.9617 145.643 66.9801 147.018 68.6755C148.191 70.1205 149.173 71.3308 150.567 71.7992ZM29.9825 71.7992C29.4824 71.9766 28.9598 72.0542 28.4432 72.0542C26.2091 72.0542 24.0467 70.616 23.3108 68.9739C23.3108 68.9739 27.4041 68.7251 31.8047 64.2761C33.2128 62.8318 34.6948 62.4034 35.9758 62.4034C37.9414 62.4034 39.4295 63.4417 39.4295 63.4417C36.5653 64.9605 34.9259 66.9749 33.5475 68.6686C32.3692 70.1165 31.3816 71.33 29.9825 71.7992ZM148.964 104.272C144.846 102.253 142.249 96.8919 141.62 94.9622C140.935 105.59 135.723 112.968 129.627 120.071C126.462 123.753 125.36 127.333 125.36 127.333C125.36 127.333 125.97 123.276 128.705 119.975C134.393 113.176 139.798 104.711 140.199 94.9214C140.474 88.0898 138.711 82.5515 135.956 77.9842C137.498 82.7392 137.279 88.561 132.048 93.9973C132.048 93.9973 142.464 81.5764 127.903 68.8414C123.766 65.4004 119.35 62.894 115.962 60.9712L115.962 60.9711C114.578 60.1855 113.366 59.4974 112.414 58.8826C124.273 62.7339 130.066 58.4951 130.066 58.4951C126.28 61.7609 121.375 61.7058 118.335 61.2346C119.161 61.6344 120.018 62.0526 120.941 62.5463C130.941 67.952 139.929 76.848 141.462 89.1669V89.073C143.788 101.17 148.964 104.272 148.964 104.272ZM152.007 90.1786C152.102 90.1848 152.18 90.1848 152.274 90.1848C157.849 90.1848 159.737 84.2425 159.737 84.2425H159.628C158.605 84.2425 150.316 84.0018 144.458 76.593L144.201 76.2666L143.972 75.977L143.97 75.9746C140.329 71.3579 137.175 67.3602 131.199 65.7468L130.584 65.6408L130.453 65.0166C130.279 64.0701 130.935 63.1786 132.417 62.2199C141.031 56.6061 135.18 49.444 135.18 49.444C135.18 49.444 132.72 55.1721 127.217 55.1721C127.15 55.1721 127.083 55.17 127.016 55.168C126.947 55.166 126.878 55.1639 126.809 55.1639L126.687 55.1576L126.687 55.1576C126.105 55.1276 125.539 55.0985 124.972 54.9803L123.96 54.7824C123.96 54.7824 125.528 50.5333 121.74 46.6351C118.887 43.6915 115.417 43.1918 113.412 43.1918C112.404 43.1918 111.762 43.3203 111.762 43.3203C113.664 45.7947 115.039 49.903 112.844 52.4386C112.109 53.281 110.963 53.8132 109.835 54.3373C108.049 55.1675 106.306 55.9773 106.306 57.9667C106.306 59.3436 107.599 60.947 109.915 62.3872C116.886 66.7546 123.806 72.554 126.686 80.3219C130.279 90.0114 126.229 96.4431 120.449 100.133C120.449 100.133 122.262 101.794 124.89 102.006C125.425 102.057 125.948 102.083 126.436 102.083C131.986 102.083 134.858 99.4907 134.858 99.4907C134.858 99.4907 134.384 103.071 131.496 106.394C128.83 109.462 125.333 111.271 119.996 111.345C119.996 111.345 119.827 113.811 122.189 115.944C123.703 117.291 127.194 117.727 127.194 117.727C127.194 117.727 120.656 119.047 119.934 128.657C119.543 133.865 118.204 135.676 118.204 135.676H118.321C133.495 135.676 133.107 122.725 133.107 122.725C133.107 122.725 134.161 126.558 138.396 127.56C138.906 127.69 139.451 127.743 139.972 127.743C141.333 127.743 142.517 127.425 142.517 127.425C142.517 127.425 140.3 122.772 142.501 116.263C144.323 110.861 144.03 106.861 144.03 106.861C144.03 106.861 146.074 109.935 151.14 109.964H151.194C155.414 109.964 157.253 106.779 157.253 106.779C147.135 102.6 148.136 89.1118 148.136 89.1118C148.136 89.1118 149.449 90.0868 152.007 90.1786ZM38.9384 94.9603C39.6271 105.59 44.8394 112.968 50.9331 120.069C54.0958 123.753 55.2128 127.331 55.2128 127.331C55.2128 127.331 54.5938 123.274 51.8473 119.978C46.1717 113.177 40.7667 104.709 40.3691 94.9215C40.0842 88.0879 41.8489 82.5496 44.6078 77.9843C43.0685 82.7413 43.2796 88.5611 48.5165 93.9995C48.5165 93.9995 38.098 81.5766 52.6671 68.8415C56.8009 65.4021 61.2102 62.8974 64.595 60.9748L64.5951 60.9747C65.98 60.188 67.1935 59.4988 68.1463 58.8828C56.291 62.7341 50.4986 58.4932 50.4986 58.4932C54.2823 61.7611 59.1851 61.706 62.2289 61.2348L62.159 61.2687C61.356 61.6583 60.5141 62.0668 59.6237 62.5485C49.6193 67.9521 40.6376 76.8501 39.0983 89.167V89.0711C36.776 101.168 31.6026 104.272 31.6026 104.272C35.7163 102.253 38.3091 96.89 38.9384 94.9603ZM58.3797 115.943C56.8649 117.291 53.3702 117.727 53.3702 117.727C53.3702 117.727 59.9149 119.045 60.6343 128.657C61.0258 133.865 62.3519 135.674 62.3519 135.674H62.2453C47.0675 135.674 47.4569 122.723 47.4569 122.723C47.4569 122.723 46.3972 126.558 42.1687 127.56C41.6625 127.69 41.1214 127.743 40.5925 127.743C39.2316 127.743 38.053 127.425 38.053 127.425C38.053 127.425 40.2584 122.774 38.0591 116.263C36.2411 110.861 36.5362 106.859 36.5362 106.859C36.5362 106.859 34.4948 109.935 29.4239 109.966H29.3726C25.1544 109.966 23.3117 106.779 23.3117 106.779C33.4228 102.6 32.4328 89.1119 32.4328 89.1119C32.4328 89.1119 31.1189 90.087 28.5548 90.1788C28.4605 90.1849 28.3765 90.1849 28.2883 90.1849C22.7112 90.1849 20.8214 84.2427 20.8214 84.2427H20.9341C21.963 84.2427 30.2437 84.002 36.0997 76.5931C36.2643 76.385 36.4278 76.178 36.5902 75.9723L36.5916 75.9705C40.2338 71.3576 43.3886 67.3617 49.3529 65.747L49.9801 65.6389L50.1133 65.0167C50.2875 64.0702 49.6337 63.1767 48.1538 62.22C39.539 56.6062 45.3888 49.4462 45.3888 49.4462C45.3888 49.4462 47.8341 55.1722 53.3538 55.1722C53.4195 55.1722 53.4836 55.1707 53.5487 55.1692C53.6157 55.1677 53.6838 55.1661 53.7556 55.1661L53.9158 55.1573C54.4818 55.1264 55.0395 55.096 55.5921 54.9804L56.6087 54.7826C56.6087 54.7826 55.0325 50.5335 58.8285 46.6353C61.6796 43.6917 65.1518 43.1899 67.1523 43.1899C68.1669 43.1899 68.8002 43.3204 68.8002 43.3204C66.9022 45.7948 65.5269 49.9032 67.7221 52.4367C68.4569 53.2801 69.6015 53.8129 70.7285 54.3375C72.5125 55.168 74.2524 55.9778 74.2524 57.9668C74.2524 59.3417 72.9611 60.9471 70.6449 62.3873C63.674 66.7547 56.7563 72.5561 53.8786 80.322C50.2875 90.0135 54.3377 96.4453 60.1239 100.133C60.1239 100.133 58.3079 101.794 55.6741 102.006C55.1391 102.057 54.6226 102.082 54.1245 102.082C48.5801 102.082 45.7085 99.4909 45.7085 99.4909C45.7085 99.4909 46.1861 103.071 49.0557 106.396C51.7387 109.462 55.2334 111.271 60.5708 111.345C60.5708 111.345 60.7388 113.811 58.3797 115.943ZM86.8531 69.9997H90.4335H94.0036V72.4412C93.1654 71.4173 91.5258 71.6274 91.5258 71.6274V75.1458C91.5258 75.1458 91.5894 76.8795 92.1981 77.6281H90.4335H88.6586C89.2776 76.8795 89.3329 75.1458 89.3329 75.1458V71.6274C89.3329 71.6274 87.6995 71.4173 86.8531 72.4412V69.9997ZM79.0595 70.3676C79.3076 70.6328 79.5515 70.9204 79.7892 71.2121L79.8218 71.2515C79.8652 71.3037 79.9072 71.3544 79.9532 71.4181C80.1705 71.7057 80.3898 72.0117 80.603 72.3259C80.6302 72.3612 80.6567 72.4006 80.6842 72.4414L80.6843 72.4416L80.685 72.4426C80.7048 72.472 80.7251 72.5021 80.7464 72.5319C81.0006 72.9134 81.2404 73.3091 81.4782 73.7171C83.6672 77.4766 87.1681 79.7266 90.2774 79.7307C93.3888 79.7266 96.8876 77.4766 99.0829 73.7171C99.3247 73.2989 99.5707 72.893 99.8248 72.5135C99.8638 72.4605 99.9027 72.4054 99.9376 72.3483C100.153 72.024 100.38 71.7098 100.616 71.4038L100.647 71.3649L100.709 71.2856L100.759 71.2223C101.003 70.9204 101.256 70.6307 101.512 70.3574C101.53 70.34 101.547 70.3231 101.563 70.3065C101.586 70.2822 101.609 70.2589 101.635 70.237C102.75 69.1028 104.078 68.2359 105.818 67.7565L105.043 67.3077H105.002L101.922 65.5289L98.757 63.7236L90.302 68.3052L90.2774 68.2848L90.261 68.3052L81.8041 63.7236L78.6414 65.5289L75.5546 67.3077H75.5198L74.7388 67.7565C76.4811 68.2359 77.8051 69.0926 78.9243 70.2289C78.9435 70.2472 78.9607 70.2665 78.978 70.2859L78.978 70.2859C79.003 70.314 79.028 70.3422 79.0595 70.3676ZM87.5825 56.7719V54.4753L83.4241 52.7334C83.4241 52.7334 83.461 54.0673 85.3322 55.5155C86.3452 56.3108 86.9733 56.515 87.1114 56.56C87.1281 56.5654 87.1376 56.5685 87.1398 56.57L87.5825 56.7719ZM89.5467 50.9592V65.2629L82.8115 61.7318L80.399 47.8749L89.5467 50.9592ZM92.9783 54.4753L97.1367 52.7334C97.1367 52.7334 97.1018 54.0673 95.2245 55.5155C94.2103 56.3146 93.5815 56.517 93.446 56.5606L93.4459 56.5606C93.4303 56.5656 93.4213 56.5685 93.4189 56.57L92.9783 56.7719V54.4753ZM97.7491 61.7318L100.153 47.8749L91.0117 50.9592V65.2629L97.7491 61.7318ZM79.1348 98.8004C78.5835 98.8004 77.5014 98.7352 76.6119 98.4129C75.6302 98.0519 74.1669 96.259 74.5031 94.2846C74.9273 94.0256 75.911 93.4749 76.8312 93.4749C77.5403 93.4749 78.024 93.8053 78.3642 94.5171C78.6593 95.1351 79.1922 95.5451 79.5652 95.7797C79.5529 96.3569 79.4976 97.2523 79.3418 98.0458C79.307 98.2232 79.2619 98.3864 79.2147 98.5475C79.1965 98.6174 79.1753 98.6797 79.1572 98.733C79.1489 98.7574 79.1413 98.7799 79.1348 98.8004ZM96.8427 90.8277C95.3969 92.3952 92.7685 94.9501 91.9228 95.7721C91.7758 95.915 91.6827 96.0055 91.659 96.0294L91.4561 96.2293L80.9495 96.0641C80.9433 97.1003 80.7732 97.9816 80.6092 98.6262C80.5946 98.6857 80.5793 98.7465 80.5637 98.8079L80.5257 98.9568L80.5252 98.9587L93.0241 101.194C94.3236 100.291 97.9024 97.6899 99.292 96.6699C98.2815 95.2032 98.1852 93.4591 98.4148 92.2311C97.7486 91.8109 97.2444 91.3336 96.8427 90.8277ZM91.4508 81.7316C93.5251 81.5256 95.8453 80.6402 98.268 78.2515H114.069C113.38 80.063 112.81 82.0233 112.81 83.9734L112.817 96.5616C110.173 96.1189 109.859 93.2876 109.849 93.1652L109.802 92.5858L109.234 92.5369C108.082 92.4288 107.323 91.9453 106.68 91.3232C105.384 90.0319 105.382 87.9431 105.384 87.9267C105.383 87.938 105.365 87.9702 105.337 88.0213C105.101 88.4518 104.131 90.2247 105.594 92.1412C106.278 93.0428 107.276 93.5976 108.566 93.8179C108.869 95.3866 110.041 97.606 112.817 97.9426V104.107H105.018C101.422 102.112 102.947 98.6076 103.015 98.4587L103.32 97.7957L102.632 97.5346C98.7374 96.0985 99.8094 92.2329 99.8606 92.0636L100.018 91.5027L99.4896 91.2538C96.2737 89.7688 96.7082 85.7747 96.7512 85.6074C95.7633 86.405 95.4067 88.0328 96.0872 89.628C95.739 90.0267 95.2765 90.5025 94.7662 91.0276L94.6831 91.113C91.3524 90.2665 91.2479 87.2209 91.2479 87.0843L91.2397 86.6151L90.8031 86.4458C89.5036 85.9664 88.6099 85.2484 88.1713 84.2835C87.6773 83.2166 87.8515 82.0947 87.9868 81.5562C88.3681 81.6418 88.7452 81.6989 89.11 81.7316C89.4851 81.7703 89.8664 81.7928 90.2558 81.7928H90.2784H90.3071C90.6944 81.7928 91.0716 81.7703 91.4508 81.7316ZM77.2769 84.0203L77.0638 92.0342L77.9819 92.1729L80.2199 84.4833L79.0845 82.1173L77.2769 84.0203ZM81.6893 113.207C81.6729 113.468 81.8634 113.688 82.1235 113.694C82.3755 113.717 82.5926 113.523 82.6172 113.268C82.6275 113.023 82.441 112.795 82.1788 112.785C81.9228 112.762 81.7118 112.96 81.6893 113.207ZM102.179 120.818C102.105 120.798 102.027 120.791 101.959 120.791C101.509 120.791 101.312 121.187 101.312 121.187C101.613 121.993 101.689 122.572 101.758 123.096C101.835 123.68 101.903 124.198 102.265 124.89C102.696 125.715 103.412 126.412 103.85 126.839L103.851 126.839C103.931 126.917 104.002 126.987 104.06 127.046C104.06 127.046 103.958 127.782 103.851 128.335L102.876 133.38C102.255 133.465 101.603 133.51 100.926 133.541L101.949 128.688C102.098 127.987 101.251 127.52 100.12 126.898C98.9317 126.244 97.4303 125.418 96.4458 123.965C95.5071 125.016 93.7423 125.33 91.9673 125.33C90.3481 125.33 88.7309 125.071 87.745 124.877C87.4969 124.841 87.2592 124.81 87.0235 124.81C86.4557 124.81 85.9371 124.985 85.5784 125.583L85.2976 126.058L79.9992 124.814L78.6792 126.991C78.4948 127.342 78.4825 127.637 78.7817 127.966L79.1384 128.355C78.8924 129.122 77.7897 130.285 77.7897 130.285L77.0026 129.306C76.3795 128.612 76.482 127.342 77.1276 126.167L79.2306 122.638L83.7194 123.28L83.0245 121.699C82.3693 120.238 82.8684 118.5 83.2813 117.063C83.4599 116.441 83.6223 115.875 83.6681 115.412C83.6169 115.875 83.1885 115.981 82.6904 115.981C82.4485 115.981 82.1905 115.956 81.9515 115.933C81.7451 115.912 81.5528 115.894 81.3971 115.894C81.2639 115.894 81.1511 115.908 81.0917 115.951L79.8742 116.687L78.917 115.845C78.8002 115.684 78.7633 115.3 79.0441 115.017L81.2639 112.538L78.6423 109.488L82.3154 111.324L83.4386 109.972C83.746 110.27 83.6108 111.057 83.6108 111.057C84.7545 111.086 87.9725 112.852 88.1426 116.985C88.1487 117.111 88.1487 117.252 88.1487 117.391C88.1487 117.391 88.1815 117.44 88.2369 117.526C88.4644 117.836 89.0916 118.631 89.8848 118.707L94.9639 119.206H94.9824C95.1969 119.206 95.4928 119.11 95.8569 118.991C96.4388 118.802 97.1949 118.556 98.0712 118.556C98.844 118.556 99.7048 118.752 100.625 119.329C100.625 119.329 101.088 118.966 101.837 118.925C101.894 118.921 101.959 118.921 102.011 118.921C103.924 118.921 104.897 120.367 105.885 121.836C106.073 122.115 106.261 122.395 106.456 122.666C107.373 123.965 108.605 125.889 108.605 125.889C108.15 126.422 107.729 126.721 107.022 126.721C106.83 126.721 106.608 126.707 106.366 126.656C104.962 126.4 104.249 124.638 103.631 123.112C103.175 121.985 102.771 120.986 102.179 120.818ZM74.8886 125.38C74.8886 125.38 76.6471 124.66 76.8028 124.15L76.5671 123.564C76.4011 123.185 76.4257 122.773 76.7454 122.549L78.6412 121.245L81.8076 121.851C81.8076 121.851 81.2358 121.137 81.2911 120.182L78.2661 119.546L75.4174 121.272C74.1939 122.183 74.1057 123.67 74.5095 124.554L74.8886 125.38ZM99.1784 133.57C98.4918 133.57 97.8626 133.578 97.297 133.603L98.7849 128.991C98.9411 128.563 98.4573 128.05 97.9768 127.54C97.7452 127.294 97.5144 127.049 97.3564 126.815C98.0901 127.272 99.9858 128.275 100.9 128.677C100.808 128.826 99.1784 133.57 99.1784 133.57Z" fill="white"/>
<path fill-rule="evenodd" clip-rule="evenodd" d="M102.802 104.107H67.7507V83.9729C67.7507 82.0227 67.1768 80.0624 66.4984 78.251H82.2952C83.7976 79.736 85.2672 80.6621 86.6672 81.1701C86.4868 81.8861 86.2449 83.365 86.9193 84.8419C87.4706 86.0311 88.4668 86.947 89.9118 87.559C90.0655 89.0277 91.0043 91.239 93.5848 92.2161C92.4514 93.3523 91.3527 94.4232 90.908 94.8536L80.4218 94.6884C80.184 94.5701 79.7782 94.3029 79.5978 93.9275C79.5868 93.899 79.5722 93.8775 79.5573 93.8555C79.5444 93.8367 79.5313 93.8174 79.5199 93.7929L81.2314 94.0683C81.2683 94.0724 81.3052 94.0724 81.3421 94.0724C81.6721 94.0724 81.9611 93.8459 82.0144 93.5094C82.0697 93.1299 81.8176 92.7832 81.4487 92.7281L79.3416 92.3976L81.6783 84.3686L79.4646 79.736L75.9207 83.4649L75.7055 91.8122L73.3238 91.4368C72.9548 91.3654 72.6043 91.6306 72.5387 92.0019C72.4834 92.3691 72.7335 92.7179 73.1065 92.7832L74.1068 92.9341C73.7501 93.1361 73.5144 93.2972 73.4857 93.3196L73.2828 93.4604L73.2274 93.7093C72.6474 96.0511 73.9571 98.2745 75.3755 99.268L75.3222 99.5637C75.2648 99.9228 75.3489 100.274 75.5661 100.569C75.7731 100.869 76.0847 101.049 76.4434 101.112C76.5151 101.126 76.593 101.132 76.6647 101.132C77.2756 101.132 77.8126 100.71 77.9601 100.09C78.489 100.155 78.9727 100.166 79.3027 100.166H79.5794L93.3368 102.642L93.5725 102.487C94.665 101.726 98.8464 98.6968 100.216 97.6891C100.591 98.0134 101.013 98.3031 101.523 98.5458C101.076 100.027 101.05 102.305 102.802 104.107ZM67.7508 105.465H112.815L112.823 122.335C112.823 127.926 109.525 131.831 104.325 133.104L105.196 128.589L105.208 128.525C105.252 128.273 105.302 127.991 105.338 127.753C105.584 127.855 105.844 127.941 106.123 127.992C106.449 128.053 106.748 128.083 107.023 128.083C108.351 128.083 109.126 127.388 109.64 126.794L110.308 126.019L109.763 125.17C109.714 125.087 108.502 123.186 107.576 121.884C107.394 121.629 107.219 121.372 107.043 121.099C105.985 119.524 104.661 117.554 102.011 117.554L101.771 117.558C101.337 117.586 100.962 117.67 100.656 117.786C99.8242 117.401 98.9612 117.197 98.0696 117.197C96.9731 117.197 96.0487 117.496 95.4338 117.707C95.3794 117.722 95.3268 117.739 95.2764 117.754C95.1633 117.789 95.0611 117.821 94.9746 117.835L90.0185 117.35C89.957 117.339 89.752 117.221 89.5061 116.929V116.905L90.5781 116.476C90.2768 112.921 86.8477 110.734 84.9333 109.994C84.8492 109.637 84.677 109.282 84.3778 108.992L83.312 107.986L82.3753 109.102L81.9141 109.673L74.9698 106.834L79.4893 112.478L77.7081 115.165C77.0543 115.856 77.7737 116.546 77.7737 116.546L79.6164 117.811L81.5246 117.101C81.5714 117.101 81.6133 117.107 81.6557 117.114C81.6746 117.117 81.6936 117.121 81.7132 117.123C81.6604 117.284 81.5999 117.71 81.5432 118.109C81.4986 118.423 81.4564 118.72 81.4222 118.859L78.1078 118.21L74.6275 120.167C72.8381 121.476 72.5942 123.639 73.2583 125.119L73.6436 125.96L74.1909 127.147L75.4125 126.645C75.4289 126.643 75.4453 126.635 75.4535 126.627C75.0169 128.018 75.1952 129.342 75.9741 130.209L76.7161 131.133L77.6999 132.369L78.7801 131.217C79.0958 130.903 80.1288 129.752 80.4465 128.771L80.6781 128.018L80.1534 127.439L80.0632 127.337L80.6597 126.362L84.9845 127.376L85.956 127.6L86.4726 126.749L86.7554 126.286C86.8087 126.186 86.821 126.172 87.0219 126.172C87.1736 126.172 87.3273 126.186 87.4933 126.225C89.1269 126.531 90.6314 126.684 91.9657 126.684C93.2631 126.684 94.0379 126.635 94.9582 126.331C94.9582 126.331 97.2805 128.957 97.3604 129.052L95.94 133.424L95.8744 133.685C93.1832 133.903 91.8714 134.491 90.287 136.066C87.9873 133.795 86.3537 133.554 80.1698 133.554C72.7664 133.554 67.7508 129.234 67.7508 122.335V105.465Z" fill="#FFDD2D"/>
<path fill-rule="evenodd" clip-rule="evenodd" d="M80.6225 34.8867L79.4419 34.7623L78.3187 34.6276C78.8352 35.7863 79.2144 36.8858 79.487 37.7956C82.4775 36.1453 86.3452 35.2049 90.2765 35.2049C94.2283 35.2049 98.0981 36.1453 101.078 37.7956C101.349 36.8858 101.73 35.7863 102.247 34.6276L101.119 34.7623L99.9366 34.8867L99.4386 33.8157L97.9321 30.6498L95.1855 32.0716L94.1156 32.6142L93.2608 31.7738L90.2765 28.8364L87.2983 31.7738L86.4477 32.6142L85.3778 32.0716L82.6189 30.6498L81.1308 33.8157L80.6225 34.8867ZM102.126 40.4538C99.7916 38.5975 95.561 36.8534 90.277 36.8534C85.0011 36.8534 80.787 38.5975 78.436 40.4538C78.436 40.4538 77.7452 36.2965 75.3758 32.6308L79.6309 33.1122L81.8548 28.4041L86.1407 30.5991L90.277 26.5193L94.4276 30.5991L98.7032 28.4041L100.931 33.1122L105.19 32.6308C102.819 36.2965 102.126 40.4538 102.126 40.4538ZM82.18 112.784C81.9239 112.76 81.7109 112.96 81.6904 113.208C81.6719 113.467 81.8645 113.688 82.1246 113.694C82.3766 113.714 82.5937 113.523 82.6183 113.268C82.6286 113.023 82.4421 112.794 82.18 112.784ZM103.069 148.157L101.012 142.521C103.459 141.781 107.67 140.186 109.556 139.123L108.299 143.225L112.564 144.634C109.984 145.923 106.857 147.125 103.069 148.157ZM90.2878 153.223C85.3275 153.223 79.6663 152.088 77.9979 151.497L80.5313 144.673C82.6322 145.285 87.0083 145.932 90.1812 145.912H90.1894H90.2878H90.3738H90.3841C93.5549 145.932 97.9249 145.285 100.038 144.673L102.567 151.497C100.899 152.088 95.2377 153.223 90.2878 153.223ZM67.9991 144.634L72.2702 143.224L71.0057 139.123C72.8891 140.185 77.1069 141.78 79.5499 142.521L77.4902 148.156C73.7171 147.124 70.5753 145.923 67.9991 144.634ZM112.756 143.382L110.159 142.393L110.877 139.721L111.666 136.812C111.666 136.812 107.066 139.296 100.583 141.161C98.7448 141.685 97.353 141.924 97.353 141.924V143.906C97.353 143.906 93.885 144.506 90.3841 144.506H90.3411H90.2878H90.2202H90.1812C86.6742 144.506 83.2123 143.906 83.2123 143.906V141.924C83.2123 141.924 81.8185 141.685 79.982 141.161C73.4989 139.296 68.9055 136.812 68.9055 136.812L69.6824 139.721L70.4121 142.393L67.809 143.382L64.921 144.457C65.2344 144.608 65.5593 144.765 65.8943 144.927L65.9038 144.932L65.9052 144.933C69.1046 146.481 73.2204 148.473 77.0161 149.506L76.0261 152.199C76.0261 152.199 81.3512 154.614 90.2202 154.636V154.64H90.2468H90.2878H90.3206H90.3411V154.636C99.2223 154.614 104.541 152.199 104.541 152.199L103.547 149.506C107.374 148.464 111.532 146.448 114.736 144.894C115.046 144.744 115.347 144.598 115.638 144.457L112.756 143.382ZM157.253 106.78C157.253 106.78 155.415 109.966 151.192 109.966H151.141C146.072 109.936 144.031 106.86 144.031 106.86C144.031 106.86 144.322 110.862 142.497 116.261C140.3 122.775 142.518 127.424 142.518 127.424C142.518 127.424 141.331 127.742 139.97 127.742C139.45 127.742 138.906 127.691 138.392 127.56C134.159 126.557 133.106 122.722 133.106 122.722C133.106 122.722 133.493 135.675 118.319 135.675H118.201C118.201 135.675 119.539 133.864 119.933 128.658C120.654 119.048 127.192 117.726 127.192 117.726C127.192 117.726 123.702 117.29 122.191 115.941C119.824 113.809 119.992 111.343 119.992 111.343C125.331 111.27 128.83 109.46 131.495 106.394C134.383 103.071 134.854 99.4915 134.854 99.4915C134.854 99.4915 131.985 102.08 126.434 102.08C125.946 102.08 125.426 102.058 124.889 102.005C122.263 101.795 120.447 100.132 120.447 100.132C126.225 96.4459 130.279 90.0101 126.684 80.3206C123.804 72.5568 116.885 66.7553 109.916 62.3859C107.598 60.9457 106.306 59.3423 106.306 57.9654C106.306 55.9766 108.047 55.1674 109.833 54.3377C110.961 53.8134 112.107 53.2808 112.843 52.4373C115.038 49.9017 113.66 45.7954 111.76 43.321C111.76 43.321 112.4 43.1905 113.41 43.1905C115.417 43.1905 118.887 43.6903 121.738 46.6359C125.526 50.5341 123.956 54.7832 123.956 54.7832L124.971 54.979C125.549 55.1015 126.125 55.1295 126.719 55.1583L126.807 55.1626C126.875 55.1626 126.943 55.1646 127.012 55.1667C127.081 55.1687 127.149 55.1708 127.217 55.1708C132.718 55.1708 135.178 49.4448 135.178 49.4448C135.178 49.4448 141.028 56.6048 132.415 62.2186C130.933 63.1794 130.279 64.0708 130.451 65.0153L130.585 65.6395L131.198 65.7476C137.169 67.3591 140.32 71.3513 143.956 75.9577C144.122 76.1678 144.289 76.3792 144.457 76.5917C150.317 84.0026 158.602 84.2412 159.625 84.2412H159.737C159.737 84.2412 157.845 90.1834 152.272 90.1834C152.178 90.1834 152.098 90.1834 152.008 90.1773C149.448 90.0855 148.134 89.1125 148.134 89.1125C148.134 89.1125 147.136 102.598 157.253 106.78ZM152.274 92.0032C159.107 92.0032 161.395 85.0839 161.487 84.7881L162.251 82.3484L159.689 82.428H159.681C158.777 82.428 151.234 82.2301 145.891 75.4679L145.387 74.8416L145.36 74.8082C141.877 70.4 138.567 66.2101 132.658 64.2974C132.83 64.1444 133.074 63.9547 133.41 63.7364C136.555 61.6823 138.383 59.1814 138.842 56.2806C139.514 51.9173 136.714 48.4352 136.591 48.2945L134.689 45.9547L133.501 48.731L133.499 48.7344C133.398 48.9573 131.398 53.3534 127.218 53.3534H126.903C126.829 53.3492 126.756 53.3452 126.683 53.3413C126.474 53.3301 126.27 53.319 126.07 53.3024C126.218 51.3217 125.855 48.2516 123.055 45.3693C119.692 41.9035 115.568 41.3813 113.412 41.3813C112.395 41.3813 111.681 41.4924 111.467 41.5256C111.439 41.53 111.419 41.5331 111.409 41.5343L108.535 42.1014L110.31 44.4268C111.698 46.2199 112.961 49.5286 111.464 51.2544C111.014 51.7743 110.112 52.2015 109.221 52.6236L109.062 52.6986C107.129 53.5839 104.483 54.8221 104.483 57.9656C104.483 59.9973 106.07 62.127 108.945 63.9364C117.454 69.2605 122.705 74.8192 124.972 80.9531C128.481 90.3897 123.902 95.7729 119.46 98.6084L117.464 99.8833L119.208 101.479L119.21 101.48C119.455 101.694 121.584 103.558 124.732 103.826C125.331 103.863 125.9 103.898 126.435 103.898C128.454 103.898 130.178 103.582 131.578 103.155C131.193 103.826 130.717 104.514 130.125 105.201C127.583 108.129 124.457 109.461 119.964 109.534L118.294 109.561L118.167 111.227C118.15 111.564 118.023 114.654 120.965 117.284C121.414 117.692 121.957 118.026 122.529 118.297C120.532 120.084 118.507 123.197 118.116 128.525C117.784 132.976 116.72 134.621 116.705 134.639L114.859 137.444L118.196 137.489C123.707 137.489 127.925 135.977 130.85 132.976C132.58 131.202 133.568 129.197 134.152 127.424C135.11 128.238 136.348 128.952 137.965 129.331C138.578 129.474 139.246 129.549 139.971 129.549C141.486 129.549 142.764 129.238 142.962 129.19L142.976 129.186L145.106 128.623L144.165 126.647L144.161 126.637C144.046 126.371 142.348 122.433 144.231 116.853C145.055 114.403 145.475 112.21 145.68 110.503C147.022 111.197 148.818 111.772 151.14 111.78C156.334 111.78 158.667 107.975 158.833 107.704L158.839 107.694L159.878 105.895L157.953 105.105C151.669 102.509 150.279 95.5363 150 91.7645C150.568 91.8727 151.218 91.9726 151.95 91.993L152.274 92.0032ZM148.754 64.2771C147.35 62.8328 145.866 62.4024 144.593 62.4024C142.616 62.4024 141.134 63.4427 141.134 63.4427C144.006 64.9638 145.644 66.9815 147.019 68.6763C148.192 70.1203 149.173 71.3299 150.566 71.7981C151.081 71.9756 151.599 72.0531 152.118 72.0531C154.352 72.0531 156.508 70.615 157.254 68.9749C157.254 68.9749 153.159 68.7261 148.754 64.2771ZM145.6 69.8176C144.299 68.2122 142.813 66.4008 140.265 65.0504L137.647 63.649L140.078 61.9457L140.11 61.9257C140.427 61.724 142.213 60.5871 144.594 60.5871C146.621 60.5871 148.504 61.4173 150.06 62.9942C153.844 66.8394 157.244 67.1494 157.367 67.1535L160.009 67.3085L158.917 69.7197C157.833 72.1247 154.969 73.8607 152.118 73.8607C151.384 73.8607 150.669 73.7505 149.997 73.52C148.118 72.9015 146.911 71.4235 145.648 69.8759L145.6 69.8176ZM141.461 89.0725V89.1643C139.928 76.8474 130.942 67.9514 120.94 62.5457C120.017 62.0521 119.16 61.6359 118.334 61.2361C121.376 61.7053 126.281 61.7604 130.065 58.4945C130.065 58.4945 124.274 62.7334 112.413 58.8821C113.365 59.4968 114.577 60.185 115.961 60.9706C119.349 62.8935 123.765 65.3999 127.902 68.8408C142.463 81.5759 132.047 93.9968 132.047 93.9968C137.278 88.5605 137.495 82.7406 135.956 77.9836C138.712 82.5509 140.475 88.0892 140.198 94.9208C139.797 104.71 134.394 113.174 128.704 119.975C125.97 123.277 125.361 127.333 125.361 127.333C125.361 127.333 126.466 123.753 129.628 120.071C135.722 112.968 140.936 105.594 141.617 94.9616C142.248 96.8914 144.845 102.252 148.963 104.272C148.963 104.272 143.787 101.169 141.461 89.0725ZM47.4543 122.722C47.4543 122.722 47.0669 135.675 62.2427 135.675H62.3513C62.3513 135.675 61.0232 133.864 60.6337 128.658C59.9122 119.046 53.3697 117.726 53.3697 117.726C53.3697 117.726 56.8623 117.29 58.377 115.941C60.7383 113.809 60.5702 111.343 60.5702 111.343C55.2308 111.27 51.7361 109.46 49.053 106.394C46.1835 103.071 45.708 99.4915 45.708 99.4915C45.708 99.4915 48.5775 102.08 54.1219 102.08C54.62 102.08 55.1365 102.058 55.6735 102.005C58.3053 101.795 60.1233 100.132 60.1233 100.132C54.3371 96.4459 50.2849 90.0121 53.8759 80.3206C56.7537 72.5568 63.6713 66.7553 70.6443 62.3859C72.9605 60.9457 74.2497 59.3423 74.2497 57.9654C74.2497 55.9768 72.5113 55.1676 70.7277 54.3374C69.6005 53.8128 68.4552 53.2797 67.7195 52.4353C65.5263 49.9017 66.8996 45.7934 68.7955 43.321C68.7955 43.321 68.1663 43.1905 67.1517 43.1905C65.1471 43.1905 61.679 43.6903 58.8259 46.6359C55.0278 50.5341 56.6061 54.7832 56.6061 54.7832L55.5915 54.979C55.0272 55.0985 54.4576 55.1281 53.8826 55.1579L53.7529 55.1646C53.6814 55.1646 53.6141 55.1662 53.5476 55.1678L53.5474 55.1678C53.4824 55.1693 53.418 55.1708 53.3512 55.1708C47.8335 55.1708 45.3862 49.4468 45.3862 49.4468C45.3862 49.4468 39.5384 56.6048 48.1512 62.2186C49.6331 63.1773 50.2849 64.0688 50.1107 65.0153L49.9795 65.6395L49.3523 65.7476C43.3842 67.3629 40.2292 71.3588 36.5856 75.9734L36.5849 75.9743L36.5762 75.9853C36.4175 76.1863 36.2579 76.3885 36.097 76.5917C30.2431 84.0026 21.9624 84.2412 20.9335 84.2412H20.8187C20.8187 84.2412 22.7106 90.1834 28.2877 90.1834C28.3759 90.1834 28.4599 90.1834 28.5522 90.1773C31.1163 90.0855 32.4301 89.1125 32.4301 89.1125C32.4301 89.1125 33.4201 102.598 23.3111 106.78C23.3111 106.78 25.1517 109.964 29.372 109.964H29.4212C34.4942 109.936 36.5336 106.86 36.5336 106.86C36.5336 106.86 36.2384 110.862 38.0565 116.261C40.2558 122.775 38.0504 127.424 38.0504 127.424C38.0504 127.424 39.2269 127.742 40.592 127.742C41.1187 127.742 41.6598 127.691 42.1661 127.558C46.3967 126.557 47.4543 122.722 47.4543 122.722ZM63.8524 134.628C63.8555 134.633 63.8572 134.636 63.8575 134.637L65.7042 137.444L62.3673 137.489C56.8558 137.489 52.6416 135.975 49.7085 132.976C47.9848 131.202 46.9927 129.197 46.4126 127.424C45.4616 128.238 44.2113 128.952 42.5941 129.331C41.9874 129.474 41.3171 129.549 40.5936 129.549C39.0477 129.549 37.7379 129.223 37.5904 129.187L37.5888 129.186L35.4551 128.623L36.4 126.647L36.4064 126.631C36.5393 126.319 38.2062 122.396 36.3323 116.853C35.5084 114.401 35.0882 112.21 34.8832 110.503C33.5407 111.197 31.7472 111.772 29.4393 111.778C24.1985 111.778 21.8614 107.92 21.727 107.699L21.7243 107.694L20.6871 105.893L22.6056 105.105C28.8899 102.509 30.2837 95.5363 30.5686 91.7645C29.9906 91.8727 29.3409 91.9726 28.6194 91.993L28.2894 92.0032C21.4517 92.0032 19.1704 85.0839 19.0802 84.7881L18.2972 82.3484L20.8716 82.428C21.7755 82.428 29.3306 82.2301 34.67 75.4679L35.1743 74.8416L35.2102 74.7962C38.6896 70.3924 41.9954 66.2083 47.9069 64.2974C47.7347 64.1444 47.499 63.9547 47.1567 63.7364C44.0125 61.6823 42.1821 59.1814 41.7271 56.2806C41.0595 51.9998 43.7458 48.5672 43.9502 48.306L43.9592 48.2945L45.8818 45.9547L47.0665 48.731C47.1423 48.9064 49.1346 53.3534 53.3529 53.3534H53.6624C53.7332 53.3493 53.8033 53.3455 53.8728 53.3418L53.8728 53.3418L53.8729 53.3418L53.873 53.3417L53.8731 53.3417C54.0829 53.3303 54.2872 53.3193 54.4904 53.3024C54.347 51.3196 54.7138 48.2537 57.5158 45.3672C60.8793 41.9035 64.995 41.3813 67.1533 41.3813C68.177 41.3813 68.8872 41.4932 69.0948 41.526L69.129 41.5313C69.138 41.5327 69.145 41.5337 69.1497 41.5343L72.0377 42.1014L70.2545 44.4268C68.8628 46.2179 67.6002 49.5286 69.0985 51.2544C69.5445 51.7687 70.4321 52.1906 71.3137 52.6096L71.5007 52.6986C73.4356 53.5839 76.0735 54.8221 76.0735 57.9656C76.0735 59.9973 74.4994 62.127 71.6237 63.9364C63.1032 69.2605 57.8601 74.8192 55.5932 80.9531C52.0903 90.3897 56.6508 95.7709 61.1088 98.6084L63.1032 99.8833L61.3548 101.479C61.1191 101.687 58.9833 103.557 55.8268 103.826C55.2324 103.863 54.6667 103.898 54.1235 103.898C52.0985 103.898 50.3849 103.582 48.987 103.155C49.3765 103.826 49.852 104.512 50.4403 105.201C52.9798 108.127 56.1138 109.461 60.5923 109.534L62.2751 109.561L62.3878 111.227C62.4083 111.564 62.5354 114.654 59.5962 117.284C59.1452 117.692 58.6103 118.026 58.0302 118.297C60.0307 120.084 62.0558 123.197 62.4534 128.525C62.7809 132.81 63.773 134.493 63.8524 134.628ZM31.8052 64.2747C33.2133 62.8325 34.6953 62.4001 35.9743 62.4001C37.942 62.4001 39.4321 63.4404 39.4321 63.4404C36.5682 64.9606 34.9291 66.9742 33.5512 68.6669C32.3719 70.1156 31.3839 71.3294 29.9831 71.7979C29.4829 71.9753 28.9623 72.0529 28.4437 72.0529C26.2116 72.0529 24.0492 70.6147 23.3114 68.9747C23.3114 68.9747 27.4066 68.7258 31.8052 64.2747ZM28.4429 73.8604C29.1767 73.8604 29.8899 73.7523 30.5663 73.5218C32.4515 72.9004 33.6591 71.4192 34.9227 69.8692L34.9649 69.8174L35.0017 69.7724C36.3022 68.1802 37.7661 66.3879 40.2941 65.0501L42.9177 63.6487L40.4806 61.9454L40.4478 61.9246C40.1278 61.7207 38.3486 60.5869 35.9734 60.5869C33.9422 60.5869 32.0565 61.4151 30.5007 62.9939C26.717 66.8412 23.3248 67.1512 23.2018 67.1533L20.5619 67.3083L21.6461 69.7195C22.7345 72.1245 25.5979 73.8604 28.4429 73.8604ZM44.6072 77.9841C41.8484 82.5514 40.0857 88.0877 40.3706 94.9213C40.7662 104.711 46.1691 113.176 51.8467 119.975C54.5933 123.274 55.2102 127.333 55.2102 127.333C55.2102 127.333 54.0952 123.753 50.9346 120.069C44.8409 112.968 39.6286 105.59 38.9399 94.9621C38.3086 96.8918 35.7157 102.253 31.6041 104.272C31.6041 104.272 36.7754 101.169 39.0977 89.0709V89.1668C40.637 76.8479 49.6208 67.9519 59.6252 62.5462C60.4478 62.104 61.2275 61.7224 61.9705 61.3588L62.2283 61.2325C59.1887 61.7058 54.2838 61.7609 50.498 58.495C50.498 58.495 56.2904 62.7339 68.1478 58.8826C67.1974 59.4964 65.9875 60.1835 64.6067 60.9676L64.6065 60.9677L64.6064 60.9678L64.6062 60.9679L64.606 60.968C61.2193 62.8913 56.8044 65.3985 52.6666 68.8413C38.0995 81.5763 48.5201 93.9993 48.5201 93.9993C43.277 88.5609 43.0679 82.7391 44.6072 77.9841ZM86.8543 70.0004V72.4419C87.7008 71.4179 89.3342 71.628 89.3342 71.628V75.1465C89.3342 75.1465 89.2789 76.8802 88.6599 77.6287H90.4347H92.1993C91.5906 76.8802 91.5271 75.1465 91.5271 75.1465V71.628C91.5271 71.628 93.1667 71.4179 94.0049 72.4419V70.0004H90.4347H86.8543ZM87.1137 56.5627C86.9785 56.5188 86.3494 56.3147 85.333 55.5136C83.4598 54.0674 83.4229 52.7355 83.4229 52.7355L87.5833 54.4754V56.7741L87.1407 56.5721C87.1393 56.5713 87.1359 56.57 87.1303 56.5681L87.1137 56.5627ZM95.2251 55.5136C97.1044 54.0674 97.1413 52.7355 97.1413 52.7355L92.9789 54.4754V56.7741L93.4195 56.5721C93.4218 56.5707 93.4308 56.5677 93.4464 56.5627C93.5816 56.5188 94.2105 56.3148 95.2251 55.5136ZM80.2562 45.4494L90.2771 49.3884L100.3 45.4494C99.4535 43.4401 95.5243 41.7347 90.2771 41.7286C85.0381 41.7347 81.1109 43.4401 80.2562 45.4494ZM91.013 65.2627L97.7503 61.7337L100.153 47.8726L91.013 50.961V65.2627ZM105.002 67.3067L101.921 65.5279L98.7567 63.7226L90.3018 68.3042L90.2772 68.2858L90.2608 68.3042L81.8059 63.7226L78.6412 65.5279L75.5543 67.3067H75.5215L74.7406 67.7575C76.4808 68.2348 77.8028 69.0916 78.9261 70.2298C78.944 70.2468 78.9602 70.2654 78.9767 70.2842C79.0017 70.3128 79.0271 70.3419 79.0593 70.3665C79.3073 70.6317 79.5533 70.9214 79.789 71.211C79.7993 71.2236 79.8096 71.236 79.8198 71.2483C79.8643 71.3018 79.9079 71.3544 79.9529 71.4191C80.1702 71.7047 80.3895 72.0127 80.6027 72.3248C80.6294 72.3594 80.6554 72.3986 80.6822 72.439C80.7028 72.4701 80.7239 72.5019 80.7462 72.5329C81.0003 72.9123 81.2402 73.3101 81.4779 73.7181C83.667 77.4776 87.1678 79.7255 90.2772 79.7296C93.3906 79.7255 96.8894 77.4776 99.0826 73.7181C99.3245 73.2999 99.5704 72.8919 99.8246 72.5145C99.8323 72.5034 99.8402 72.4921 99.8482 72.4807C99.8784 72.4376 99.9098 72.3928 99.9373 72.3493C100.153 72.0249 100.38 71.7088 100.616 71.4048C100.641 71.3711 100.667 71.3384 100.692 71.3068C100.716 71.2774 100.738 71.2488 100.759 71.2212C101.003 70.9214 101.255 70.6297 101.511 70.3563C101.532 70.3377 101.551 70.3187 101.569 70.3002C101.591 70.2781 101.612 70.2569 101.634 70.238C102.752 69.1018 104.078 68.2348 105.818 67.7575L105.043 67.3067H105.002ZM112.809 83.9726C112.809 82.0225 113.379 80.0622 114.068 78.2508H98.2666C95.848 80.6395 93.5257 81.5268 91.4494 81.7308C91.0743 81.7696 90.6931 81.794 90.3077 81.794H90.277H90.2544C89.8691 81.794 89.4837 81.7696 89.1107 81.7308C88.7479 81.7002 88.3667 81.6431 87.9854 81.5554C87.8502 82.0939 87.6759 83.2138 88.1699 84.2827C88.6126 85.2476 89.5022 85.9677 90.8037 86.445L91.2424 86.6143L91.2485 87.0835C91.2485 87.2242 91.351 90.2678 94.6817 91.1123L94.7021 91.0914C95.2373 90.5427 95.7235 90.0442 96.0858 89.6293C95.4053 88.032 95.7619 86.4042 96.7519 85.6066C96.7089 85.7759 96.2743 89.768 99.4882 91.251L100.019 91.5039L99.8613 92.0669C99.81 92.2342 98.738 96.0978 102.63 97.5359L103.319 97.7929L103.016 98.46C102.946 98.6109 101.421 102.115 105.016 104.104H112.815V97.9459C110.044 97.6073 108.868 95.3899 108.564 93.8172C107.277 93.5989 106.279 93.042 105.592 92.1404C104.132 90.2221 105.101 88.4505 105.336 88.0204C105.364 87.9694 105.381 87.9372 105.383 87.926C105.381 87.9443 105.383 90.0352 106.681 91.3244C107.32 91.9445 108.085 92.428 109.232 92.5361L109.8 92.5892L109.851 93.1644C109.862 93.2888 110.171 96.1182 112.815 96.5608L112.809 83.9726ZM105.197 128.589L104.326 133.103C109.526 131.831 112.824 127.926 112.824 122.335L112.815 105.465H67.7492V122.335C67.7492 129.236 72.7668 133.554 80.1702 133.554C86.3561 133.554 87.9856 133.795 90.2874 136.065C91.8718 134.491 93.1816 133.903 95.8748 133.685L95.9384 133.422L97.3608 129.056C97.2809 128.954 94.9586 126.331 94.9586 126.331C94.0363 126.635 93.2615 126.686 91.9661 126.686C90.6318 126.686 89.1252 126.531 87.4937 126.225C87.3297 126.188 87.176 126.174 87.0223 126.174C86.8214 126.174 86.8112 126.188 86.7558 126.286L86.475 126.749L85.9585 127.6L84.9828 127.375L80.6601 126.362L80.0677 127.337L80.1559 127.441L80.6785 128.018L80.4449 128.769C80.1292 129.752 79.0962 130.902 78.7805 131.216L77.7003 132.373L76.7165 131.133L75.9766 130.209C75.1997 129.342 75.0194 128.018 75.458 126.625C75.4477 126.635 75.4293 126.641 75.4129 126.645L74.1933 127.147L73.6461 125.962L73.2587 125.121C72.5946 123.638 72.8385 121.476 74.6279 120.166L78.1082 118.212L81.4226 118.861C81.4583 118.719 81.5014 118.414 81.5466 118.094C81.6025 117.7 81.6615 117.283 81.7136 117.123C81.6924 117.12 81.6717 117.117 81.651 117.113C81.6095 117.106 81.5681 117.098 81.523 117.098L79.6168 117.808L77.7741 116.548C77.7741 116.548 77.0567 115.854 77.7065 115.165L79.4877 112.478L74.9722 106.834L81.9145 109.673L82.3777 109.102L83.3144 107.986L84.3782 108.992C84.6795 109.282 84.8517 109.636 84.9357 109.993C86.846 110.732 90.2772 112.921 90.5805 116.478L89.5065 116.907V116.929C89.7545 117.221 89.9554 117.339 90.0189 117.351L94.9771 117.837C95.0593 117.821 95.1549 117.791 95.2614 117.759C95.3168 117.742 95.3752 117.724 95.4362 117.706C96.0491 117.5 96.9735 117.196 98.0721 117.196C98.9637 117.196 99.8246 117.398 100.657 117.786C100.962 117.672 101.337 117.586 101.774 117.559L102.012 117.553C104.662 117.553 105.983 119.519 107.039 121.093L107.044 121.099C107.22 121.374 107.394 121.627 107.576 121.884C108.505 123.185 109.712 125.085 109.763 125.17L110.309 126.019L109.64 126.794C109.126 127.388 108.349 128.083 107.021 128.083C106.748 128.083 106.451 128.053 106.123 127.991C105.842 127.938 105.584 127.855 105.338 127.753C105.302 127.991 105.253 128.273 105.208 128.525L105.197 128.589ZM76.8023 124.148L76.5687 123.564C76.4006 123.185 76.4231 122.773 76.7449 122.549L78.6407 121.247L81.8071 121.851C81.8071 121.851 81.2353 121.137 81.2906 120.183L78.2677 119.546L75.4169 121.272C74.1933 122.184 74.1052 123.67 74.511 124.554L74.8881 125.38C74.8881 125.38 76.6486 124.66 76.8023 124.148ZM102.877 133.381L103.85 128.334C103.959 127.783 104.061 127.045 104.061 127.045C104.007 126.99 103.942 126.927 103.868 126.856C103.431 126.431 102.702 125.724 102.264 124.893C101.901 124.2 101.834 123.681 101.757 123.095C101.688 122.57 101.613 121.992 101.313 121.186C101.313 121.186 101.507 120.791 101.958 120.791C102.028 120.791 102.106 120.799 102.18 120.819C102.771 120.986 103.174 121.984 103.63 123.11C104.248 124.636 104.962 126.399 106.367 126.657C106.609 126.704 106.828 126.721 107.021 126.721C107.73 126.721 108.15 126.423 108.603 125.888C108.603 125.888 107.374 123.967 106.457 122.669C106.263 122.399 106.076 122.121 105.89 121.843C104.9 120.37 103.926 118.92 102.012 118.92C101.958 118.92 101.893 118.92 101.837 118.928C101.087 118.963 100.626 119.328 100.626 119.328C99.7057 118.753 98.8449 118.557 98.0721 118.557C97.1952 118.557 96.4379 118.803 95.8557 118.993C95.4921 119.111 95.1968 119.208 94.9833 119.208H94.9628L89.8878 118.706C89.0925 118.632 88.4632 117.837 88.2378 117.523C88.1824 117.439 88.1517 117.388 88.1517 117.388C88.1517 117.253 88.1517 117.111 88.1435 116.986C87.9713 112.853 84.7554 111.085 83.6096 111.056C83.6096 111.056 83.7449 110.273 83.4354 109.971L82.3142 111.323L78.6412 109.488L81.2648 112.537L79.045 115.018C78.7642 115.301 78.799 115.681 78.9158 115.842L79.8751 116.686L81.0926 115.954C81.152 115.907 81.2648 115.895 81.396 115.895C81.5515 115.895 81.7435 115.913 81.9498 115.933C82.1893 115.956 82.448 115.98 82.6913 115.98C83.1874 115.98 83.6158 115.876 83.667 115.413C83.6212 115.876 83.4591 116.441 83.2808 117.063C82.8685 118.5 82.3701 120.237 83.0254 121.698L83.7223 123.281L79.2315 122.635L77.1306 126.168C76.4808 127.343 76.3804 128.614 77.0014 129.307L77.7885 130.286C77.7885 130.286 78.8912 129.124 79.1372 128.357L78.7806 127.967C78.4793 127.636 78.4957 127.343 78.6801 126.99L79.996 124.817L85.2965 126.058L85.5793 125.584C85.938 124.989 86.4546 124.811 87.0223 124.811C87.258 124.811 87.4978 124.838 87.7459 124.878C88.7297 125.072 90.3469 125.329 91.9661 125.329C93.7412 125.329 95.508 125.013 96.4467 123.967C97.4295 125.417 98.9298 126.243 100.118 126.897C101.249 127.52 102.098 127.987 101.948 128.689L100.925 133.538C101.602 133.511 102.256 133.466 102.877 133.381ZM97.2972 133.602C97.8608 133.58 98.4941 133.572 99.1766 133.572C99.1766 133.572 100.808 128.826 100.9 128.675C99.9861 128.275 98.0904 127.273 97.3567 126.814C97.5147 127.05 97.747 127.297 97.9798 127.544C98.4595 128.053 98.9417 128.564 98.7831 128.993L97.2972 133.602ZM77.2759 84.0214L77.0648 92.0332L77.9809 92.1739L80.2189 84.4823L79.0835 82.1184L77.2759 84.0214ZM79.563 95.7793C79.192 95.5447 78.6592 95.1348 78.362 94.5167C78.0259 93.8049 77.5402 93.4745 76.8331 93.4745C75.9109 93.4745 74.9271 94.0252 74.5029 94.2842C74.1668 96.2607 75.6301 98.0515 76.6118 98.4125C77.5012 98.7348 78.5813 98.8021 79.1346 98.8021C79.142 98.778 79.1509 98.7516 79.1605 98.723C79.1778 98.6716 79.1975 98.6133 79.2146 98.5491C79.2617 98.388 79.3068 98.2228 79.3437 98.0474C79.4974 97.2519 79.5527 96.3565 79.563 95.7793ZM93.0237 101.193C94.3232 100.29 97.904 97.6888 99.2916 96.6709C98.2811 95.2022 98.1848 93.4581 98.4123 92.2341C97.7503 91.8119 97.246 91.3325 96.8423 90.8266C95.3082 92.4916 92.4429 95.2666 91.7882 95.9006C91.7186 95.968 91.674 96.0112 91.6586 96.0263L91.4557 96.2303L80.9511 96.063C80.9429 97.1013 80.7748 97.9805 80.6109 98.6271C80.595 98.6916 80.5776 98.7575 80.5601 98.824C80.5483 98.869 80.5364 98.9143 80.5248 98.9596L93.0237 101.193ZM86.6658 81.1678C85.27 80.6619 83.7983 79.7358 82.2938 78.2508H66.497C67.1754 80.0622 67.7493 82.0225 67.7493 83.9726V104.104H102.803C101.05 102.305 101.079 100.027 101.52 98.5497C101.012 98.3049 100.591 98.0132 100.216 97.6909C98.845 98.6966 94.6677 101.724 93.5712 102.487L93.3375 102.64L79.5821 100.169H79.3013C78.9713 100.169 78.4896 100.155 77.9608 100.092C77.8132 100.71 77.2762 101.13 76.6634 101.13C76.5937 101.13 76.5158 101.126 76.4441 101.112C76.0854 101.051 75.7738 100.869 75.5647 100.569C75.3495 100.275 75.2655 99.9246 75.3249 99.5656L75.3741 99.2678C73.9578 98.2743 72.648 96.0529 73.2281 93.7091L73.2834 93.4602L73.4864 93.3194C73.513 93.297 73.7508 93.1358 74.1054 92.9359L73.1072 92.7829C72.7321 92.7177 72.48 92.3689 72.5394 92.0037C72.603 91.6324 72.9555 91.3632 73.3244 91.4346L75.7062 91.812L75.9234 83.4668L79.4673 79.7358L81.6789 84.3684L79.3443 92.3954L81.4473 92.7258C81.8183 92.785 82.0704 93.1297 82.0151 93.5091C81.9597 93.8457 81.6728 94.0722 81.3407 94.0722C81.3038 94.0722 81.269 94.0722 81.2321 94.0681L79.5227 93.7947C79.5332 93.8186 79.546 93.8376 79.5588 93.8564C79.5732 93.8779 79.5876 93.8991 79.5985 93.9273C79.7789 94.3047 80.1847 94.5699 80.4225 94.6882L90.9066 94.8534L90.9493 94.8119C91.419 94.3553 92.4888 93.3152 93.5855 92.2138C91.0029 91.2408 90.0662 89.0295 89.9084 87.5588C88.4675 86.9468 87.4713 86.0309 86.9179 84.8416C86.2456 83.3668 86.4834 81.8879 86.6658 81.1678ZM89.5475 50.961L80.3998 47.8726L82.8102 61.7337L89.5475 65.2627V50.961ZM90.2997 39.5173C96.8136 39.5173 102.717 42.6567 102.717 46.1469L102.59 47.0057L99.9865 61.8684L102.59 63.3779L109.362 67.3067H109.337C109.337 67.3067 110.86 68.0839 111.555 68.5633C114.144 70.34 114.685 72.9389 113.188 74.0118C112.815 71.8944 111.137 69.6832 107.99 69.6832C105.721 69.6832 103.996 70.8418 102.59 72.5941C102.239 73.0347 101.899 73.5059 101.577 74.0118C101.183 74.6524 100.794 75.2133 100.405 75.7519H117.825C116.54 78.314 115.326 81.025 115.326 83.9726V122.335C115.326 131.622 108.161 136.051 100.394 136.051C99.9421 136.051 99.5193 136.049 99.1228 136.048C94.2548 136.03 93.3331 136.027 90.2874 139.062C87.2284 136.027 86.3057 136.03 81.4409 136.048C81.0446 136.049 80.6221 136.051 80.1702 136.051C72.4101 136.051 65.2342 131.622 65.2342 122.335V83.9726C65.2342 81.025 64.0187 78.314 62.7377 75.7519H80.1558C79.7643 75.2133 79.3708 74.6524 78.9793 74.0118C78.6637 73.5059 78.3214 73.0347 77.9606 72.5941C76.5689 70.848 74.839 69.6832 72.572 69.6832C69.4217 69.6832 67.7409 71.8944 67.372 74.0118C65.8778 72.9389 66.425 70.34 68.9994 68.5633C69.7045 68.0839 71.2254 67.3067 71.2254 67.3067H71.2008L77.9606 63.3779L80.576 61.8684L77.9729 47.0057L77.8438 46.1469C77.8438 42.6567 83.7469 39.5173 90.2607 39.5173H90.2771H90.2935H90.2997Z" fill="#231F20"/>
</g>
<defs>
<clipPath id="clip0_117_341790">
<path d="M0.263489 64C0.263489 41.5979 0.263489 30.3968 4.62323 21.8404C8.45816 14.3139 14.5774 8.19467 22.1039 4.35974C30.6603 0 41.8614 0 64.2635 0H116.263C138.666 0 149.867 0 158.423 4.35974C165.95 8.19467 172.069 14.3139 175.904 21.8404C180.263 30.3968 180.263 41.5979 180.263 64V116C180.263 138.402 180.263 149.603 175.904 158.16C172.069 165.686 165.95 171.805 158.423 175.64C149.867 180 138.666 180 116.263 180H64.2635C41.8614 180 30.6603 180 22.1039 175.64C14.5774 171.805 8.45816 165.686 4.62323 158.16C0.263489 149.603 0.263489 138.402 0.263489 116V64Z" fill="white"/>
</clipPath>
</defs>
</svg>
